<?xml version="1.0" standalone="no"?>
<!DOCTYPE svg PUBLIC "-//W3C//DTD SVG 20010904//EN"
 "http://www.w3.org/TR/2001/REC-SVG-20010904/DTD/svg10.dtd">
<svg version="1.0" xmlns="http://www.w3.org/2000/svg"
 width="157.000000pt" height="150.000000pt" viewBox="0 0 157.000000 150.000000"
 preserveAspectRatio="xMidYMid meet">

<g transform="translate(0.000000,150.000000) scale(0.100000,-0.100000)"
fill="#000000" stroke="none">
<path d="M417 1481 c-72 -29 -148 -91 -206 -168 -86 -114 -211 -379 -211 -448
0 -39 42 -79 83 -79 50 0 70 23 102 112 15 42 47 115 70 162 106 211 226 307
323 256 58 -31 152 -148 152 -189 0 -29 -76 -80 -227 -154 -286 -140 -360
-223 -351 -397 11 -228 267 -453 616 -542 331 -84 615 -6 704 194 64 144 10
386 -115 513 -59 60 -162 113 -252 130 -73 14 -218 6 -299 -16 -135 -37 -257
-118 -298 -198 -28 -55 -22 -132 14 -179 59 -78 264 -136 325 -93 30 21 38 66
19 104 -12 23 -27 33 -59 41 -100 24 -148 42 -144 53 7 24 87 75 149 97 91 32
228 38 304 14 87 -27 165 -106 193 -198 70 -227 -40 -337 -321 -323 -316 15
-629 204 -672 404 -10 45 17 97 73 139 25 20 118 71 206 114 235 115 299 180
299 305 0 49 -7 72 -34 123 -40 76 -129 168 -200 206 -71 39 -172 46 -243 17z"/>
</g>
</svg>
